<svg xmlns="http://www.w3.org/2000/svg" width="420" height="423"><path d="M295.821 2.427c-27.978 4.964-54.75 22.262-69.474 44.891l-2.847 4.376-98-.097-98-.097-5.696 2.67C10.875 59.293 3.14 69.689 1.013 82.111.249 86.573.007 127.862.21 219c.272 122.417.4 130.779 2.072 135 2.523 6.373 8.07 13.585 13.269 17.249L20 374.385v15.847c0 17.401.761 20.367 6.658 25.965 5.573 5.289 8.39 5.805 31.56 5.781 24.354-.025 26.73-.594 32.984-7.901 4.597-5.371 5.798-10.345 5.798-24.02V379h156.808l.372 13.75c.43 15.901 1.932 20.145 8.92 25.208 5.978 4.33 12.656 5.317 32.828 4.854 18.95-.435 21.304-1.009 27.414-6.676 5.885-5.459 6.658-8.48 6.658-26.015v-15.958l3.43-2.12c4.54-2.806 8.951-7.936 12.322-14.33l2.748-5.213.5-72.891c.435-63.419.695-72.997 2-73.7.825-.445 4.526-2.199 8.224-3.898 27.404-12.587 48.489-38.04 57.023-68.836 1.801-6.499 2.137-10.509 2.19-26.175.056-16.343-.207-19.491-2.251-27-10.111-37.145-39.315-66.193-76.067-75.659-12.029-3.099-32.606-3.988-44.298-1.914M19 169.682v53.993l39.164.663c21.54.364 54.39.662 73 .662H165V117h-59.342c-32.638 0-65.488-.295-73-.655L19 115.69v53.992m165 1.504V225h64.346c35.391 0 68.466.292 73.5.65l9.154.649V212.5l-16.75-.089c-14.689-.078-17.944-.407-26.456-2.681-40.52-10.823-70.611-42.932-78.408-83.665-.783-4.09-1.527-7.524-1.655-7.632-.127-.108-5.518-.392-11.981-.629l-11.75-.433v53.815M50 305.5v7.5h30v-15H50v7.5m220 0v7.5h31v-15h-31v7.5" fill="undefined" fill-rule="evenodd"/></svg>